<svg viewBox="0 0 100 21.705" xmlns="http://www.w3.org/2000/svg">
<radialGradient id="a" cx="22.432" cy="3.493" r="21.679" gradientTransform="matrix(1.0856 0 0 1.0856 -4.4842 -2.1259)" gradientUnits="userSpaceOnUse">
<stop stop-color="#e44857" offset=".003"/>
<stop stop-color="#c711e1" offset=".469"/>
<stop stop-color="#7f52ff" offset="1"/>
</radialGradient>
<path d="m94.516 5.9825c-1.1726 0-2.2045 0.28197-3.084 0.85743-0.70575 0.45602-1.2697 1.0642-1.7149 1.8242l-0.021485-2.3223h-3.0957v15.025h3.2246v-8.4024c0-0.81433 0.15193-1.5324 0.4668-2.1621 0.30402-0.62975 0.7401-1.1174 1.3047-1.4649 0.5646-0.34745 1.2146-0.52149 1.9746-0.52149 0.67318 0 1.2606 0.14153 1.7383 0.42383 0.4886 0.2823 0.84598 0.69368 1.0957 1.2149 0.24973 0.53203 0.36914 1.1632 0.36914 1.8906v9.0215h3.2246v-9.4786c0.021711-1.1618-0.21695-2.182-0.66211-3.0723a5.0966 5.0966 0 0 0-1.9219-2.084c-0.82518-0.49945-1.791-0.75-2.8985-0.75z"/>
<path d="m79.706 0.033203v3.3106h3.2578v-3.3106zm0 6.3086v15.025h3.2246v-15.025z"/>
<path d="m72.844-1.7152e-8v21.367h3.2246v-21.367z"/>
<path d="m63.659 2.584v2.5508c0 0.40173-0.09753 0.70691-0.29297 0.90235-0.19544 0.19544-0.49952 0.30469-0.91211 0.30469h-1.5527v2.7031h2.7031v8.0879c0 0.83604 0.17318 1.586 0.50977 2.2266 0.33659 0.6406 0.82534 1.1389 1.4551 1.4863 0.62975 0.34745 1.3805 0.53321 2.2383 0.53321h2.4199v-2.8125h-1.8242c-0.46688 0-0.84638-0.16255-1.1504-0.48828-0.29316-0.32573-0.4336-0.75986-0.4336-1.3027v-7.7207h3.4961v-2.7129h-3.4961v-3.7578z"/>
<path d="m52.496 5.9825c-1.4984 0-2.8341 0.3366-4.0176 1.0098a7.1986 7.1986 0 0 0-2.7676 2.791c-0.66232 1.1943-0.98829 2.5514-0.98829 4.0606 0 1.5201 0.32597 2.8662 0.98829 4.0606a7.0032 7.0032 0 0 0 2.7461 2.791c1.1835 0.67318 2.5192 1.0098 4.0176 1.0098 1.4766 0 2.802-0.3366 3.9746-1.0098a7.0901 7.0901 0 0 0 2.7246-2.791c0.65146-1.1943 0.97657-2.5514 0.97657-4.0606 0-1.5201-0.32511-2.8662-0.97657-4.0606-0.65146-1.1943-1.552-2.1179-2.7246-2.791-1.1618-0.67318-2.4765-1.0098-3.9531-1.0098zm-0.02148 2.8985c0.83604 0 1.5857 0.20741 2.2481 0.63086 0.65146 0.42345 1.1612 1.0097 1.5195 1.7481 0.3583 0.74918 0.5332 1.6057 0.5332 2.5938 0.01086 0.97719-0.16404 1.8348-0.5332 2.584-0.3583 0.74918-0.86808 1.3355-1.5195 1.7481-0.65146 0.42345-1.4109 0.63086-2.2578 0.63086-0.85776 0-1.6179-0.20741-2.291-0.63086-0.66232-0.42345-1.1836-1.0097-1.5527-1.7481-0.36916-0.74918-0.55469-1.6068-0.55469-2.584 0-0.97719 0.18553-1.8446 0.55469-2.5938 0.36916-0.74918 0.89042-1.3355 1.5527-1.7481 0.66232-0.42345 1.4322-0.63086 2.3008-0.63086z"/>
<path d="m41.248 0.79297-8.8809 9.4786v-9.4473h-3.2793v20.543h3.2793v-9.9551l8.9141 9.9551h4.2227l-9.5001-10.629 9.3262-9.9454z"/>
<path d="m20.554 21.368h-20.554v-20.543h20.554l-10.489 10.119z" fill="url(#a)" stroke-width="1.0858"/>
</svg>